<?xml version="1.0" encoding="UTF-8" standalone="no"?>
<!-- Created with Inkscape (http://www.inkscape.org/) -->

<svg
   version="1.1"
   id="svg1"
   width="794.66669"
   height="1122.6667"
   viewBox="0 0 794.66669 1122.6667"
   xmlns="http://www.w3.org/2000/svg"
   xmlns:svg="http://www.w3.org/2000/svg">
  <defs
     id="defs1" />
  <g
     id="g1">
    <path
       id="path1"
       d="m 287.902,233.684 c 0,1.523 0.2,2.636 0.602,3.324 0.207,0.316 0.5,0.578 0.863,0.773 0.367,0.199 0.801,0.297 1.301,0.297 v 1.121 h -12.23 v -1.121 c 0.492,0 0.91,-0.082 1.253,-0.254 0.34,-0.164 0.629,-0.433 0.868,-0.801 0.425,-0.664 0.636,-1.785 0.636,-3.339 v -19.383 c 0,-1.555 -0.211,-2.672 -0.636,-3.328 -0.215,-0.344 -0.497,-0.614 -0.848,-0.793 -0.344,-0.188 -0.773,-0.278 -1.273,-0.278 v -1.121 h 12.23 v 1.121 c -0.5,0 -0.93,0.098 -1.285,0.286 -0.36,0.187 -0.645,0.457 -0.863,0.808 -0.411,0.656 -0.618,1.754 -0.618,3.305 v 7.984 h 6.578 v -7.984 c 0,-1.563 -0.207,-2.664 -0.621,-3.305 -0.211,-0.336 -0.492,-0.598 -0.855,-0.793 -0.363,-0.203 -0.789,-0.301 -1.289,-0.301 v -1.121 h 12.23 v 1.121 c -0.496,0 -0.922,0.09 -1.269,0.262 -0.356,0.18 -0.641,0.441 -0.871,0.793 -0.414,0.664 -0.625,1.781 -0.625,3.328 v 19.391 c 0,1.578 0.211,2.691 0.64,3.347 0.207,0.336 0.489,0.598 0.844,0.778 0.359,0.187 0.785,0.277 1.281,0.277 v 1.121 h -12.23 v -1.121 c 0.508,0 0.937,-0.09 1.297,-0.277 0.355,-0.18 0.636,-0.446 0.847,-0.793 0.414,-0.672 0.621,-1.785 0.621,-3.324 v -9.153 h -6.578 z"
       style="fill:#ed1c24;fill-opacity:1;fill-rule:nonzero;stroke:none"
       transform="scale(1.3333333)" />
    <path
       id="path2"
       d="m 316.516,237.855 c 1.578,0 2.777,-1.113 3.574,-3.343 0.801,-2.219 1.203,-5.528 1.203,-9.907 0,-2.515 -0.094,-4.675 -0.281,-6.492 -0.184,-1.824 -0.477,-3.32 -0.867,-4.5 -0.762,-2.328 -1.977,-3.484 -3.629,-3.484 -1.594,0 -2.786,1.141 -3.582,3.437 -0.789,2.289 -1.184,5.766 -1.184,10.426 0,4.641 0.391,8.113 1.168,10.414 0.785,2.297 1.98,3.449 3.598,3.449 z m 11.824,-13.863 c 0,4.86 -1.067,8.735 -3.199,11.613 -2.133,2.879 -5.008,4.313 -8.625,4.313 -3.602,0 -6.469,-1.434 -8.59,-4.313 -2.125,-2.878 -3.192,-6.753 -3.192,-11.613 0,-4.875 1.063,-8.75 3.176,-11.621 2.113,-2.871 4.985,-4.309 8.606,-4.309 3.629,0 6.511,1.43 8.632,4.286 2.125,2.855 3.192,6.738 3.192,11.644"
       style="fill:#ed1c24;fill-opacity:1;fill-rule:nonzero;stroke:none"
       transform="scale(1.3333333)" />
    <path
       id="path3"
       d="m 349.023,208.781 v 7.852 h -0.757 c -0.137,-2.11 -0.551,-3.617 -1.246,-4.539 -0.688,-0.918 -1.762,-1.383 -3.208,-1.383 h -1.398 v 22.965 c 0,1.531 0.199,2.644 0.609,3.328 0.204,0.32 0.493,0.582 0.856,0.777 0.371,0.199 0.801,0.297 1.297,0.297 v 1.121 h -12.227 v -1.121 c 0.496,0 0.914,-0.082 1.258,-0.254 0.34,-0.164 0.633,-0.433 0.871,-0.801 0.422,-0.671 0.633,-1.785 0.633,-3.347 v -22.965 h -1.399 c -1.421,0 -2.484,0.457 -3.164,1.359 -0.679,0.907 -1.101,2.426 -1.257,4.563 h -0.789 v -7.852 z"
       style="fill:#ed1c24;fill-opacity:1;fill-rule:nonzero;stroke:none"
       transform="scale(1.3333333)" />
    <path
       id="path4"
       d="m 349.246,239.199 v -1.121 c 0.492,0 0.91,-0.082 1.258,-0.254 0.336,-0.164 0.629,-0.433 0.867,-0.801 0.422,-0.664 0.637,-1.785 0.637,-3.339 v -19.383 c 0,-1.555 -0.215,-2.672 -0.637,-3.328 -0.219,-0.344 -0.5,-0.614 -0.848,-0.793 -0.343,-0.188 -0.773,-0.278 -1.277,-0.278 v -1.121 h 18.899 v 8.301 h -0.762 c -0.227,-2.355 -0.754,-4.008 -1.574,-4.949 -0.821,-0.953 -2.172,-1.422 -4.039,-1.422 h -3.059 v 11.891 h 0.355 c 1.172,0 2.039,-0.481 2.618,-1.438 0.57,-0.965 0.949,-2.578 1.121,-4.844 h 0.808 v 14.625 h -0.808 c -0.153,-2.265 -0.528,-3.883 -1.117,-4.859 -0.586,-0.981 -1.493,-1.469 -2.715,-1.469 h -0.262 v 9.418 c 0,1.457 0.16,2.36 0.477,2.711 0.324,0.324 1.124,0.481 2.41,0.481 2,0 3.527,-0.59 4.597,-1.766 1.071,-1.172 1.86,-3.141 2.367,-5.899 h 0.887 l -1.238,9.637 z"
       style="fill:#ed1c24;fill-opacity:1;fill-rule:nonzero;stroke:none"
       transform="scale(1.3333333)" />
    <path
       id="path5"
       d="m 379.68,233.684 c 0,1.308 0.152,2.234 0.465,2.781 0.308,0.539 0.863,0.805 1.656,0.805 1.652,0 3.031,-0.86 4.121,-2.571 1.094,-1.719 1.808,-4.148 2.152,-7.304 l 0.883,0.148 -0.824,11.656 h -17.922 v -1.121 c 0.496,0 0.914,-0.082 1.258,-0.254 0.34,-0.164 0.629,-0.433 0.867,-0.801 0.426,-0.664 0.637,-1.785 0.637,-3.339 v -19.383 c 0,-1.555 -0.211,-2.672 -0.637,-3.328 -0.215,-0.344 -0.496,-0.614 -0.848,-0.793 -0.343,-0.188 -0.773,-0.278 -1.277,-0.278 v -1.121 h 12.227 v 1.121 c -0.497,0 -0.922,0.098 -1.282,0.286 -0.355,0.187 -0.64,0.464 -0.859,0.808 -0.414,0.656 -0.617,1.762 -0.617,3.313 z"
       style="fill:#ed1c24;fill-opacity:1;fill-rule:nonzero;stroke:none"
       transform="scale(1.3333333)" />
    <path
       id="path6"
       d="m 233.684,288.578 c 1.523,0 2.636,0.199 3.324,0.603 0.316,0.207 0.578,0.501 0.773,0.865 0.199,0.368 0.297,0.803 0.297,1.3 h 1.121 v -12.255 h -1.121 c 0,0.493 -0.082,0.912 -0.254,1.257 -0.164,0.34 -0.433,0.63 -0.801,0.869 -0.664,0.427 -1.785,0.638 -3.339,0.638 h -19.383 c -1.555,0 -2.672,-0.211 -3.328,-0.638 -0.344,-0.216 -0.614,-0.497 -0.793,-0.85 -0.188,-0.344 -0.278,-0.775 -0.278,-1.276 h -1.121 v 12.255 h 1.121 c 0,-0.497 0.098,-0.928 0.286,-1.284 0.187,-0.361 0.457,-0.646 0.808,-0.866 0.656,-0.411 1.754,-0.618 3.305,-0.618 h 7.984 v 6.593 h -7.984 c -1.563,0 -2.664,-0.207 -3.305,-0.622 -0.336,-0.212 -0.598,-0.494 -0.793,-0.862 -0.203,-0.36 -0.301,-0.791 -0.301,-1.288 h -1.121 v 12.259 h 1.121 c 0,-0.501 0.09,-0.924 0.262,-1.276 0.18,-0.352 0.441,-0.642 0.793,-0.869 0.664,-0.415 1.781,-0.627 3.328,-0.627 h 19.391 c 1.578,0 2.691,0.212 3.347,0.642 0.336,0.208 0.598,0.49 0.778,0.846 0.187,0.36 0.277,0.783 0.277,1.284 h 1.121 v -12.259 h -1.121 c 0,0.509 -0.09,0.94 -0.277,1.3 -0.18,0.356 -0.446,0.638 -0.793,0.85 -0.672,0.415 -1.785,0.622 -3.324,0.622 h -9.153 v -6.593 z"
       style="fill:none;stroke:#254aa5;stroke-width:0.51148;stroke-linecap:butt;stroke-linejoin:miter;stroke-miterlimit:22.9256;stroke-dasharray:none;stroke-opacity:1"
       transform="matrix(0,1.3333333,1.3302133,0,0,0)" />
    <path
       id="path7"
       d="m 237.855,317.258 c 0,1.582 -1.113,2.78 -3.343,3.583 -2.219,0.802 -5.528,1.206 -9.907,1.206 -2.515,0 -4.675,-0.094 -6.492,-0.282 -1.824,-0.184 -3.32,-0.478 -4.5,-0.869 -2.328,-0.768 -3.484,-1.982 -3.484,-3.638 0,-1.597 1.141,-2.792 3.437,-3.59 2.289,-0.791 5.766,-1.187 10.426,-1.187 4.641,0 8.113,0.392 10.414,1.171 2.297,0.787 3.449,1.985 3.449,3.606 z m -13.863,11.848 c 4.86,0 8.735,-1.065 11.613,-3.207 2.879,-2.133 4.313,-5.015 4.313,-8.641 0,-3.61 -1.434,-6.484 -4.313,-8.61 -2.878,-2.13 -6.753,-3.199 -11.613,-3.199 -4.875,0 -8.75,1.061 -11.621,3.18 -2.871,2.118 -4.309,4.996 -4.309,8.629 0,3.638 1.43,6.523 4.286,8.653 2.855,2.13 6.738,3.195 11.644,3.195 z"
       style="fill:none;stroke:#254aa5;stroke-width:0.51148;stroke-linecap:butt;stroke-linejoin:miter;stroke-miterlimit:22.9256;stroke-dasharray:none;stroke-opacity:1"
       transform="matrix(0,1.3333333,1.3302133,0,0,0)" />
    <path
       id="path8"
       d="m 208.781,349.842 h 7.852 v -0.759 c -2.11,-0.137 -3.617,-0.552 -4.539,-1.249 -0.918,-0.689 -1.383,-1.766 -1.383,-3.219 v -1.402 h 22.965 c 1.531,0 2.644,0.204 3.324,0.611 0.324,0.208 0.586,0.497 0.781,0.862 0.199,0.372 0.297,0.802 0.297,1.3 h 1.121 v -12.26 h -1.121 c 0,0.502 -0.082,0.921 -0.254,1.265 -0.164,0.341 -0.433,0.63 -0.801,0.869 -0.671,0.427 -1.785,0.638 -3.347,0.638 h -22.965 v -1.401 c 0,-1.429 0.457,-2.49 1.359,-3.176 0.907,-0.677 2.426,-1.104 4.563,-1.256 v -0.791 h -7.852 z"
       style="fill:none;stroke:#254aa5;stroke-width:0.51148;stroke-linecap:butt;stroke-linejoin:miter;stroke-miterlimit:22.9256;stroke-dasharray:none;stroke-opacity:1"
       transform="matrix(0,1.3333333,1.3302133,0,0,0)" />
    <path
       id="path9"
       d="m 239.199,350.065 h -1.121 c 0,0.494 -0.082,0.913 -0.254,1.257 -0.164,0.341 -0.433,0.635 -0.801,0.873 -0.664,0.423 -1.785,0.635 -3.339,0.635 h -19.383 c -1.555,0 -2.672,-0.212 -3.328,-0.635 -0.344,-0.219 -0.614,-0.501 -0.793,-0.849 -0.188,-0.345 -0.278,-0.776 -0.278,-1.281 h -1.121 v 18.943 h 8.301 v -0.763 c -2.355,-0.227 -4.008,-0.756 -4.949,-1.578 -0.953,-0.822 -1.422,-2.177 -1.422,-4.053 v -3.062 h 11.891 v 0.357 c 0,1.174 -0.481,2.044 -1.438,2.623 -0.965,0.572 -2.578,0.948 -4.844,1.124 v 0.806 h 14.625 v -0.806 c -2.265,-0.153 -3.883,-0.529 -4.859,-1.12 -0.981,-0.587 -1.469,-1.496 -1.469,-2.721 v -0.263 h 9.418 c 1.457,0 2.36,0.161 2.711,0.478 0.324,0.325 0.481,1.128 0.481,2.416 0,2.001 -0.59,3.536 -1.766,4.608 -1.172,1.073 -3.141,1.864 -5.899,2.373 v 0.889 l 9.637,-1.245 z"
       style="fill:none;stroke:#254aa5;stroke-width:0.51148;stroke-linecap:butt;stroke-linejoin:miter;stroke-miterlimit:22.9256;stroke-dasharray:none;stroke-opacity:1"
       transform="matrix(0,1.3333333,1.3302133,0,0,0)" />
    <path
       id="path10"
       d="m 233.684,380.566 c 1.308,0 2.234,0.157 2.781,0.47 0.535,0.306 0.805,0.866 0.805,1.66 0,1.657 -0.86,3.039 -2.571,4.131 -1.719,1.093 -4.148,1.809 -7.304,2.154 l 0.148,0.889 11.656,-0.831 v -17.96 h -1.121 c 0,0.494 -0.082,0.913 -0.254,1.257 -0.164,0.341 -0.433,0.635 -0.801,0.873 -0.664,0.423 -1.785,0.639 -3.339,0.639 h -19.383 c -1.555,0 -2.672,-0.216 -3.328,-0.639 -0.344,-0.219 -0.614,-0.501 -0.793,-0.849 -0.188,-0.345 -0.278,-0.775 -0.278,-1.281 h -1.121 v 12.256 h 1.121 c 0,-0.501 0.098,-0.924 0.286,-1.285 0.187,-0.356 0.464,-0.646 0.808,-0.861 0.656,-0.415 1.762,-0.623 3.313,-0.623 z"
       style="fill:none;stroke:#254aa5;stroke-width:0.51148;stroke-linecap:butt;stroke-linejoin:miter;stroke-miterlimit:22.9256;stroke-dasharray:none;stroke-opacity:1"
       transform="matrix(0,1.3333333,1.3302133,0,0,0)" />
    <path
       id="path11"
       d="m 288.188,254.613 h 0.289 c 1.109,0 1.933,-0.351 2.461,-1.062 0.531,-0.707 0.8,-1.817 0.8,-3.321 0,-1.406 -0.293,-2.445 -0.875,-3.117 -0.582,-0.672 -1.472,-1.008 -2.675,-1.008 z m 0,6.735 c 0,1.074 0.222,1.828 0.664,2.254 0.441,0.425 1.218,0.636 2.336,0.636 h 0.117 v 0.739 h -12.309 v -0.739 c 0.477,0 0.883,-0.054 1.219,-0.168 0.328,-0.105 0.613,-0.281 0.844,-0.523 0.41,-0.438 0.617,-1.172 0.617,-2.192 v -12.718 c 0,-1.02 -0.207,-1.75 -0.617,-2.184 -0.211,-0.223 -0.485,-0.402 -0.825,-0.519 -0.332,-0.122 -0.75,-0.18 -1.238,-0.18 v -0.738 h 11.418 c 2.633,0 4.629,0.453 5.984,1.359 1.356,0.902 2.036,2.23 2.036,3.969 0,1.773 -0.711,3.133 -2.125,4.07 -1.418,0.934 -3.489,1.406 -6.207,1.406 h -1.914 z"
       style="fill:#254aa5;fill-opacity:1;fill-rule:nonzero;stroke:none"
       transform="scale(1.3333333)" />
    <path
       id="path12"
       d="m 311.141,264.09 c 1.531,0 2.695,-0.731 3.472,-2.192 0.774,-1.457 1.164,-3.625 1.164,-6.5 0,-1.648 -0.089,-3.066 -0.269,-4.257 -0.18,-1.2 -0.465,-2.18 -0.844,-2.953 -0.742,-1.528 -1.918,-2.29 -3.523,-2.29 -1.551,0 -2.707,0.754 -3.481,2.258 -0.765,1.504 -1.152,3.785 -1.152,6.84 0,3.047 0.383,5.324 1.14,6.832 0.758,1.508 1.922,2.262 3.493,2.262 z m 11.48,-9.094 c 0,3.188 -1.035,5.731 -3.109,7.617 -2.067,1.891 -4.86,2.832 -8.371,2.832 -3.5,0 -6.282,-0.941 -8.344,-2.832 -2.063,-1.886 -3.098,-4.429 -3.098,-7.617 0,-3.199 1.028,-5.738 3.082,-7.625 2.051,-1.883 4.84,-2.824 8.36,-2.824 3.523,0 6.32,0.937 8.382,2.812 2.063,1.871 3.098,4.418 3.098,7.637"
       style="fill:#254aa5;fill-opacity:1;fill-rule:nonzero;stroke:none"
       transform="scale(1.3333333)" />
    <path
       id="path13"
       d="m 333.426,254.613 h 0.406 c 1.289,0 2.246,-0.343 2.879,-1.035 0.633,-0.687 0.945,-1.758 0.945,-3.203 0,-1.488 -0.336,-2.566 -1.004,-3.25 -0.664,-0.68 -1.738,-1.02 -3.226,-1.02 z m 0,6.735 c 0,1.054 0.211,1.797 0.633,2.23 0.222,0.211 0.515,0.371 0.875,0.488 0.359,0.114 0.812,0.172 1.355,0.172 l 0.012,0.739 h -12.067 v -0.739 c 0.481,0 0.887,-0.054 1.219,-0.168 0.332,-0.105 0.613,-0.281 0.844,-0.523 0.414,-0.438 0.617,-1.172 0.617,-2.192 v -12.718 c 0,-1.02 -0.203,-1.75 -0.617,-2.184 -0.211,-0.223 -0.481,-0.402 -0.82,-0.519 -0.336,-0.122 -0.754,-0.18 -1.243,-0.18 v -0.738 h 11.575 c 2.804,0 4.949,0.457 6.433,1.375 1.488,0.914 2.231,2.242 2.231,3.984 0,1.187 -0.368,2.211 -1.094,3.066 -0.731,0.86 -1.762,1.473 -3.094,1.848 l 4.156,6.91 c 0.442,0.754 0.852,1.27 1.235,1.543 0.386,0.278 0.859,0.438 1.418,0.496 v 0.739 h -7.746 l -5.243,-9.157 h -0.679 z"
       style="fill:#254aa5;fill-opacity:1;fill-rule:nonzero;stroke:none"
       transform="scale(1.3333333)" />
    <path
       id="path14"
       d="m 347.234,264.977 v -0.739 c 0.477,0 0.883,-0.054 1.219,-0.168 0.328,-0.105 0.613,-0.281 0.844,-0.523 0.41,-0.438 0.617,-1.172 0.617,-2.192 v -12.718 c 0,-1.02 -0.207,-1.75 -0.617,-2.184 -0.211,-0.223 -0.485,-0.402 -0.824,-0.519 -0.336,-0.122 -0.75,-0.18 -1.239,-0.18 v -0.738 h 18.352 v 5.449 h -0.738 c -0.223,-1.547 -0.735,-2.633 -1.532,-3.25 -0.796,-0.621 -2.109,-0.934 -3.921,-0.934 h -2.969 v 7.801 h 0.344 c 1.136,0 1.98,-0.312 2.542,-0.941 0.555,-0.633 0.918,-1.692 1.09,-3.18 h 0.782 v 9.598 h -0.782 c -0.148,-1.489 -0.515,-2.547 -1.086,-3.188 -0.57,-0.644 -1.449,-0.965 -2.64,-0.965 h -0.25 v 6.18 c 0,0.957 0.152,1.551 0.461,1.781 0.316,0.211 1.093,0.313 2.343,0.313 1.938,0 3.426,-0.387 4.461,-1.157 1.039,-0.773 1.809,-2.062 2.301,-3.871 h 0.86 l -1.204,6.325 z"
       style="fill:#254aa5;fill-opacity:1;fill-rule:nonzero;stroke:none"
       transform="scale(1.3333333)" />
    <path
       id="path15"
       d="m 388.461,260.789 c -1.012,1.527 -2.285,2.684 -3.813,3.484 -1.527,0.801 -3.25,1.204 -5.168,1.204 -1.445,0 -2.773,-0.227 -3.976,-0.684 -1.211,-0.457 -2.301,-1.133 -3.274,-2.031 -1.074,-0.965 -1.886,-2.117 -2.441,-3.457 -0.269,-0.684 -0.477,-1.383 -0.617,-2.121 -0.141,-0.731 -0.211,-1.504 -0.211,-2.329 0,-3.043 0.996,-5.527 2.992,-7.437 1.992,-1.914 4.586,-2.871 7.77,-2.871 1.371,0 2.703,0.199 3.984,0.609 1.281,0.403 1.992,0.614 2.129,0.633 0.305,0 0.531,-0.074 0.68,-0.219 0.148,-0.14 0.3,-0.433 0.437,-0.875 h 0.797 v 6.41 h -0.797 c -0.273,-1.578 -0.894,-2.812 -1.879,-3.683 -0.976,-0.879 -2.203,-1.317 -3.679,-1.317 -1.77,0 -3.125,0.731 -4.059,2.188 -0.941,1.457 -1.41,3.598 -1.41,6.418 0,2.937 0.453,5.168 1.363,6.687 0.906,1.52 2.258,2.282 4.043,2.282 1.117,0 2.195,-0.301 3.234,-0.903 1.039,-0.605 1.996,-1.5 2.872,-2.687 z"
       style="fill:#254aa5;fill-opacity:1;fill-rule:nonzero;stroke:none"
       transform="scale(1.3333333)" />
    <path
       id="path16"
       d="m 375.184,241.527 h 8.953 v 1.922 h -8.953 z"
       style="fill:#254aa5;fill-opacity:1;fill-rule:evenodd;stroke:none"
       transform="scale(1.3333333)" />
    <path
       id="path17"
       d="m 207.344,251.766 v -1.504 c 1.168,0 1.996,-0.274 2.496,-0.817 0.5,-0.531 0.754,-1.504 0.754,-2.894 V 214.5 c 0,-1.371 -0.246,-2.312 -0.723,-2.844 -0.508,-0.636 -1.348,-0.949 -2.527,-0.949 v -1.441 h 12.359 v 17.613 c 1.117,-1.567 2.453,-2.77 4.016,-3.594 1.558,-0.824 3.215,-1.242 4.98,-1.242 2.781,0 4.863,0.824 6.223,2.465 1.367,1.64 2.047,4.148 2.047,7.512 v 14.542 c 0,1.36 0.234,2.321 0.703,2.872 0.465,0.554 1.273,0.828 2.418,0.828 v 1.504 h -15.227 l -0.125,-1.504 c 1.102,0 1.899,-0.293 2.399,-0.891 0.234,-0.262 0.414,-0.637 0.531,-1.098 0.129,-0.468 0.191,-1.043 0.191,-1.722 v -15.055 c 0,-1.934 -0.222,-3.258 -0.66,-3.98 -0.433,-0.711 -1.23,-1.067 -2.379,-1.067 -0.976,0 -1.898,0.281 -2.769,0.836 -0.871,0.567 -1.656,1.41 -2.348,2.531 v 16.735 c 0,1.347 0.235,2.308 0.692,2.863 0.457,0.563 1.242,0.848 2.367,0.848 v 1.504 z"
       style="fill:#254aa5;fill-opacity:1;fill-rule:nonzero;stroke:none"
       transform="scale(1.3333333)" />
    <path
       id="path18"
       d="m 251.199,245.359 c 0.434,1.18 1.051,2.11 1.836,2.782 0.797,0.656 1.676,0.992 2.653,0.992 1.816,0 3.164,-0.961 4.058,-2.883 0.426,-0.961 0.766,-2.184 0.988,-3.668 0.223,-1.484 0.34,-3.238 0.34,-5.266 0,-4.105 -0.394,-7.054 -1.191,-8.828 -0.797,-1.789 -2.09,-2.676 -3.887,-2.676 -0.934,0 -1.805,0.336 -2.609,0.993 -0.821,0.668 -1.551,1.672 -2.188,3.031 z m -12.426,19.446 0.032,-1.446 c 0.597,0 1.117,-0.093 1.55,-0.269 0.438,-0.188 0.778,-0.438 1.02,-0.774 0.48,-0.625 0.711,-2.14 0.711,-4.535 v -28.687 c 0,-2.008 -0.211,-3.282 -0.625,-3.836 -0.414,-0.551 -1.242,-0.887 -2.496,-1.012 v -1.441 h 11.723 v 4.441 c 0.89,-1.633 2.058,-2.918 3.515,-3.855 1.453,-0.93 3.035,-1.403 4.758,-1.403 3.281,0 5.988,1.379 8.144,4.137 1.059,1.371 1.856,2.937 2.399,4.715 0.543,1.765 0.805,3.758 0.805,5.984 0,4.66 -1.09,8.473 -3.27,11.442 -2.187,2.957 -4.969,4.437 -8.367,4.437 -1.465,0 -2.824,-0.332 -4.078,-1 -1.25,-0.68 -2.387,-1.672 -3.395,-3 v 8.516 c 0,2.527 0.305,4.168 0.922,4.91 0.328,0.387 0.809,0.687 1.422,0.91 0.617,0.219 1.383,0.32 2.305,0.32 v 1.446 z"
       style="fill:#254aa5;fill-opacity:1;fill-rule:nonzero;stroke:none"
       transform="scale(1.3333333)" />
    <path
       id="path19"
       d="m 214.258,225.861 v 4.67 l -4.535,1.446 4.535,1.439 v 4.67 l 2.804,-3.772 4.532,1.443 -2.805,-3.78 2.805,-3.787 -4.532,1.443 z"
       style="fill:#f4c509;fill-opacity:1;fill-rule:evenodd;stroke:#254aa5;stroke-width:0.57097;stroke-linecap:butt;stroke-linejoin:miter;stroke-miterlimit:22.9256;stroke-dasharray:none;stroke-opacity:1"
       transform="matrix(0,1.3333333,1.328412,0,0,0)" />
    <path
       id="path20"
       d="m 214.258,241.019 v 4.669 l -4.535,1.447 4.535,1.439 v 4.669 l 2.804,-3.771 4.532,1.442 -2.805,-3.779 2.805,-3.788 -4.532,1.443 z"
       style="fill:#f4c509;fill-opacity:1;fill-rule:evenodd;stroke:#254aa5;stroke-width:0.57097;stroke-linecap:butt;stroke-linejoin:miter;stroke-miterlimit:22.9256;stroke-dasharray:none;stroke-opacity:1"
       transform="matrix(0,1.3333333,1.328412,0,0,0)" />
    <path
       id="path21"
       d="m 214.258,255.847 v 4.669 l -4.535,1.443 4.535,1.443 v 4.67 l 2.804,-3.772 4.532,1.443 -2.805,-3.784 2.805,-3.783 -4.532,1.442 z"
       style="fill:#f4c509;fill-opacity:1;fill-rule:evenodd;stroke:#254aa5;stroke-width:0.57097;stroke-linecap:butt;stroke-linejoin:miter;stroke-miterlimit:22.9256;stroke-dasharray:none;stroke-opacity:1"
       transform="matrix(0,1.3333333,1.328412,0,0,0)" />
    <path
       id="path22"
       d="m 207.238,255.926 c 1.301,0.156 1.664,3.504 4.532,3.504 2.359,0 3.292,-3.5 5.839,-3.504 2.664,-0.035 3.946,3.504 5.879,3.504 2.184,0 3.219,-3.555 5.809,-3.504 2.758,0.058 3.308,3.504 5.961,3.504 2.437,0 3.16,-3.516 4.652,-3.504 v 5.703 c -0.039,0.551 -2.402,3.543 -4.68,3.543 -3.144,0 -4.726,-3.297 -5.808,-3.297 -0.887,0 -2.098,3.297 -5.984,3.297 -3.524,0 -4.809,-3.234 -5.696,-3.297 -0.945,0.063 -2.387,3.297 -5.98,3.297 -2.875,0 -4.41,-2.961 -4.524,-3.543 z"
       style="fill:#254aa5;fill-opacity:1;fill-rule:evenodd;stroke:none"
       transform="scale(1.3333333)" />
    <path
       id="path23"
       d="m 254.413,206.891 c 0.161,1.3 3.52,1.66 3.52,4.531 0,2.359 -3.512,3.293 -3.52,5.84 -0.035,2.664 3.52,3.945 3.52,5.879 0,2.183 -3.567,3.218 -3.52,5.808 0.063,2.758 3.52,3.305 3.52,5.961 0,2.438 -3.528,3.16 -3.52,4.649"
       style="fill:none;stroke:#a5b6e0;stroke-width:1.13784;stroke-linecap:butt;stroke-linejoin:miter;stroke-miterlimit:22.9256;stroke-dasharray:none;stroke-opacity:1"
       transform="matrix(0,1.3285493,1.3333333,0,0,0)" />
  </g>
</svg>
